<?xml version="1.0" encoding="us-ascii" standalone="no"?><svg xmlns="http://www.w3.org/2000/svg" xmlns:xlink="http://www.w3.org/1999/xlink" contentStyleType="text/css" height="823px" preserveAspectRatio="none" style="width:731px;height:823px;background:#FFFFFF;" version="1.1" viewBox="0 0 731 823" width="731px" zoomAndPan="magnify"><defs/><g><line style="stroke:#181818;stroke-width:0.5;stroke-dasharray:5.0,5.0;" x1="29" x2="29" y1="81.2969" y2="742.2188"/><line style="stroke:#181818;stroke-width:0.5;stroke-dasharray:5.0,5.0;" x1="260.5" x2="260.5" y1="81.2969" y2="742.2188"/><line style="stroke:#181818;stroke-width:0.5;stroke-dasharray:5.0,5.0;" x1="366.5" x2="366.5" y1="81.2969" y2="742.2188"/><line style="stroke:#181818;stroke-width:0.5;stroke-dasharray:5.0,5.0;" x1="473.5" x2="473.5" y1="81.2969" y2="742.2188"/><line style="stroke:#181818;stroke-width:0.5;stroke-dasharray:5.0,5.0;" x1="588.5" x2="588.5" y1="81.2969" y2="742.2188"/><line style="stroke:#181818;stroke-width:0.5;stroke-dasharray:5.0,5.0;" x1="692.5" x2="692.5" y1="81.2969" y2="742.2188"/><text fill="#000000" font-family="sans-serif" font-size="14" lengthAdjust="spacing" textLength="42" x="5" y="77.9951">&#38283;&#30330;&#32773;</text><ellipse cx="29" cy="13.5" fill="#E2E2F0" rx="8" ry="8" style="stroke:#181818;stroke-width:0.5;"/><path d="M29,21.5 L29,48.5 M16,29.5 L42,29.5 M29,48.5 L16,63.5 M29,48.5 L42,63.5 " fill="none" style="stroke:#181818;stroke-width:0.5;"/><text fill="#000000" font-family="sans-serif" font-size="14" lengthAdjust="spacing" textLength="42" x="5" y="754.2139">&#38283;&#30330;&#32773;</text><ellipse cx="29" cy="766.0156" fill="#E2E2F0" rx="8" ry="8" style="stroke:#181818;stroke-width:0.5;"/><path d="M29,774.0156 L29,801.0156 M16,782.0156 L42,782.0156 M29,801.0156 L16,816.0156 M29,801.0156 L42,816.0156 " fill="none" style="stroke:#181818;stroke-width:0.5;"/><rect fill="#E2E2F0" height="30.2969" rx="2.5" ry="2.5" style="stroke:#181818;stroke-width:0.5;" width="83" x="219.5" y="50"/><text fill="#000000" font-family="sans-serif" font-size="14" lengthAdjust="spacing" textLength="69" x="226.5" y="69.9951">IssueWise</text><rect fill="#E2E2F0" height="30.2969" rx="2.5" ry="2.5" style="stroke:#181818;stroke-width:0.5;" width="83" x="219.5" y="741.2188"/><text fill="#000000" font-family="sans-serif" font-size="14" lengthAdjust="spacing" textLength="69" x="226.5" y="761.2139">IssueWise</text><rect fill="#E2E2F0" height="30.2969" rx="2.5" ry="2.5" style="stroke:#181818;stroke-width:0.5;" width="109" x="312.5" y="50"/><text fill="#000000" font-family="sans-serif" font-size="14" lengthAdjust="spacing" textLength="95" x="319.5" y="69.9951">CommitCraft</text><rect fill="#E2E2F0" height="30.2969" rx="2.5" ry="2.5" style="stroke:#181818;stroke-width:0.5;" width="109" x="312.5" y="741.2188"/><text fill="#000000" font-family="sans-serif" font-size="14" lengthAdjust="spacing" textLength="95" x="319.5" y="761.2139">CommitCraft</text><rect fill="#E2E2F0" height="30.2969" rx="2.5" ry="2.5" style="stroke:#181818;stroke-width:0.5;" width="84" x="431.5" y="50"/><text fill="#000000" font-family="sans-serif" font-size="14" lengthAdjust="spacing" textLength="70" x="438.5" y="69.9951">DocuMind</text><rect fill="#E2E2F0" height="30.2969" rx="2.5" ry="2.5" style="stroke:#181818;stroke-width:0.5;" width="84" x="431.5" y="741.2188"/><text fill="#000000" font-family="sans-serif" font-size="14" lengthAdjust="spacing" textLength="70" x="438.5" y="761.2139">DocuMind</text><rect fill="#E2E2F0" height="30.2969" rx="2.5" ry="2.5" style="stroke:#181818;stroke-width:0.5;" width="64" x="556.5" y="50"/><text fill="#000000" font-family="sans-serif" font-size="14" lengthAdjust="spacing" textLength="50" x="563.5" y="69.9951">GitHub</text><rect fill="#E2E2F0" height="30.2969" rx="2.5" ry="2.5" style="stroke:#181818;stroke-width:0.5;" width="64" x="556.5" y="741.2188"/><text fill="#000000" font-family="sans-serif" font-size="14" lengthAdjust="spacing" textLength="50" x="563.5" y="761.2139">GitHub</text><text fill="#000000" font-family="sans-serif" font-size="14" lengthAdjust="spacing" textLength="70" x="654.5" y="77.9951">&#12522;&#12509;&#12472;&#12488;&#12522;</text><path d="M674.5,29 C674.5,19 692.5,19 692.5,19 C692.5,19 710.5,19 710.5,29 L710.5,55 C710.5,65 692.5,65 692.5,65 C692.5,65 674.5,65 674.5,55 L674.5,29 " fill="#E2E2F0" style="stroke:#181818;stroke-width:1.5;"/><path d="M674.5,29 C674.5,39 692.5,39 692.5,39 C692.5,39 710.5,39 710.5,29 " fill="none" style="stroke:#181818;stroke-width:1.5;"/><text fill="#000000" font-family="sans-serif" font-size="14" lengthAdjust="spacing" textLength="70" x="654.5" y="754.2139">&#12522;&#12509;&#12472;&#12488;&#12522;</text><path d="M674.5,767.5156 C674.5,757.5156 692.5,757.5156 692.5,757.5156 C692.5,757.5156 710.5,757.5156 710.5,767.5156 L710.5,793.5156 C710.5,803.5156 692.5,803.5156 692.5,803.5156 C692.5,803.5156 674.5,803.5156 674.5,793.5156 L674.5,767.5156 " fill="#E2E2F0" style="stroke:#181818;stroke-width:1.5;"/><path d="M674.5,767.5156 C674.5,777.5156 692.5,777.5156 692.5,777.5156 C692.5,777.5156 710.5,777.5156 710.5,767.5156 " fill="none" style="stroke:#181818;stroke-width:1.5;"/><polygon fill="#181818" points="249,108.4297,259,112.4297,249,116.4297,253,112.4297" style="stroke:#181818;stroke-width:1.0;"/><line style="stroke:#181818;stroke-width:1.0;" x1="29" x2="255" y1="112.4297" y2="112.4297"/><text fill="#000000" font-family="sans-serif" font-size="13" lengthAdjust="spacing" textLength="140" x="36" y="107.3638">1. &#12458;&#12540;&#12503;&#12531;Issue&#12434;&#21462;&#24471;</text><polygon fill="#181818" points="576.5,137.5625,586.5,141.5625,576.5,145.5625,580.5,141.5625" style="stroke:#181818;stroke-width:1.0;"/><line style="stroke:#181818;stroke-width:1.0;" x1="261" x2="582.5" y1="141.5625" y2="141.5625"/><text fill="#000000" font-family="sans-serif" font-size="13" lengthAdjust="spacing" textLength="141" x="268" y="136.4966">GitHub&#12363;&#12425;Issue&#12434;&#21462;&#24471;</text><polygon fill="#181818" points="272,166.6953,262,170.6953,272,174.6953,268,170.6953" style="stroke:#181818;stroke-width:1.0;"/><line style="stroke:#181818;stroke-width:1.0;stroke-dasharray:2.0,2.0;" x1="266" x2="587.5" y1="170.6953" y2="170.6953"/><text fill="#000000" font-family="sans-serif" font-size="13" lengthAdjust="spacing" textLength="72" x="278" y="165.6294">Issue&#12487;&#12540;&#12479;</text><polygon fill="#181818" points="40,195.8281,30,199.8281,40,203.8281,36,199.8281" style="stroke:#181818;stroke-width:1.0;"/><line style="stroke:#181818;stroke-width:1.0;stroke-dasharray:2.0,2.0;" x1="34" x2="260" y1="199.8281" y2="199.8281"/><text fill="#000000" font-family="sans-serif" font-size="13" lengthAdjust="spacing" textLength="176" x="46" y="194.7622">Issue&#12487;&#12540;&#12479;&#12434;&#12510;&#12540;&#12463;&#12480;&#12454;&#12531;&#21270;</text><polygon fill="#181818" points="249,224.9609,259,228.9609,249,232.9609,253,228.9609" style="stroke:#181818;stroke-width:1.0;"/><line style="stroke:#181818;stroke-width:1.0;" x1="29" x2="255" y1="228.9609" y2="228.9609"/><text fill="#000000" font-family="sans-serif" font-size="13" lengthAdjust="spacing" textLength="165" x="36" y="223.895">2. AI&#12395;Issue&#12392;&#12467;&#12540;&#12489;&#12434;&#20837;&#21147;</text><polygon fill="#181818" points="461.5,254.0938,471.5,258.0938,461.5,262.0938,465.5,258.0938" style="stroke:#181818;stroke-width:1.0;"/><line style="stroke:#181818;stroke-width:1.0;" x1="261" x2="467.5" y1="258.0938" y2="258.0938"/><text fill="#000000" font-family="sans-serif" font-size="13" lengthAdjust="spacing" textLength="182" x="268" y="253.0278">&#12467;&#12540;&#12489;&#12398;&#27083;&#36896;&#12434;&#12510;&#12540;&#12463;&#12480;&#12454;&#12531;&#21270;</text><polygon fill="#181818" points="680.5,283.2266,690.5,287.2266,680.5,291.2266,684.5,287.2266" style="stroke:#181818;stroke-width:1.0;"/><line style="stroke:#181818;stroke-width:1.0;" x1="473.5" x2="686.5" y1="287.2266" y2="287.2266"/><text fill="#000000" font-family="sans-serif" font-size="13" lengthAdjust="spacing" textLength="143" x="480.5" y="282.1606">&#12522;&#12509;&#12472;&#12488;&#12522;&#12398;&#24773;&#22577;&#12434;&#21462;&#24471;</text><polygon fill="#181818" points="484.5,312.3594,474.5,316.3594,484.5,320.3594,480.5,316.3594" style="stroke:#181818;stroke-width:1.0;"/><line style="stroke:#181818;stroke-width:1.0;stroke-dasharray:2.0,2.0;" x1="478.5" x2="691.5" y1="316.3594" y2="316.3594"/><text fill="#000000" font-family="sans-serif" font-size="13" lengthAdjust="spacing" textLength="195" x="490.5" y="311.2935">&#12501;&#12449;&#12452;&#12523;&#27083;&#36896;&#12392;&#12467;&#12540;&#12489;&#12473;&#12491;&#12506;&#12483;&#12488;</text><polygon fill="#181818" points="272,341.4922,262,345.4922,272,349.4922,268,345.4922" style="stroke:#181818;stroke-width:1.0;"/><line style="stroke:#181818;stroke-width:1.0;stroke-dasharray:2.0,2.0;" x1="266" x2="472.5" y1="345.4922" y2="345.4922"/><text fill="#000000" font-family="sans-serif" font-size="13" lengthAdjust="spacing" textLength="169" x="278" y="340.4263">&#12510;&#12540;&#12463;&#12480;&#12454;&#12531;&#21270;&#12373;&#12428;&#12383;&#12467;&#12540;&#12489;</text><polygon fill="#181818" points="40,370.625,30,374.625,40,378.625,36,374.625" style="stroke:#181818;stroke-width:1.0;"/><line style="stroke:#181818;stroke-width:1.0;stroke-dasharray:2.0,2.0;" x1="34" x2="260" y1="374.625" y2="374.625"/><text fill="#000000" font-family="sans-serif" font-size="13" lengthAdjust="spacing" textLength="208" x="46" y="369.5591">&#12510;&#12540;&#12463;&#12480;&#12454;&#12531;&#21270;&#12373;&#12428;&#12383;&#35506;&#38988;&#12392;&#12467;&#12540;&#12489;</text><polygon fill="#181818" points="355,399.7578,365,403.7578,355,407.7578,359,403.7578" style="stroke:#181818;stroke-width:1.0;"/><line style="stroke:#181818;stroke-width:1.0;" x1="29" x2="361" y1="403.7578" y2="403.7578"/><text fill="#000000" font-family="sans-serif" font-size="13" lengthAdjust="spacing" textLength="185" x="36" y="398.6919">3. &#12473;&#12486;&#12540;&#12472;&#12531;&#12464;&#28168;&#12415;&#22793;&#26356;&#12434;&#21462;&#24471;</text><polygon fill="#181818" points="680.5,428.8906,690.5,432.8906,680.5,436.8906,684.5,432.8906" style="stroke:#181818;stroke-width:1.0;"/><line style="stroke:#181818;stroke-width:1.0;" x1="367" x2="686.5" y1="432.8906" y2="432.8906"/><text fill="#000000" font-family="sans-serif" font-size="13" lengthAdjust="spacing" textLength="169" x="374" y="427.8247">&#12473;&#12486;&#12540;&#12472;&#12531;&#12464;&#28168;&#12415;&#22793;&#26356;&#12434;&#21462;&#24471;</text><polygon fill="#181818" points="378,458.0234,368,462.0234,378,466.0234,374,462.0234" style="stroke:#181818;stroke-width:1.0;"/><line style="stroke:#181818;stroke-width:1.0;stroke-dasharray:2.0,2.0;" x1="372" x2="691.5" y1="462.0234" y2="462.0234"/><text fill="#000000" font-family="sans-serif" font-size="13" lengthAdjust="spacing" textLength="52" x="384" y="456.9575">&#22793;&#26356;&#24046;&#20998;</text><polygon fill="#181818" points="40,487.1563,30,491.1563,40,495.1563,36,491.1563" style="stroke:#181818;stroke-width:1.0;"/><line style="stroke:#181818;stroke-width:1.0;stroke-dasharray:2.0,2.0;" x1="34" x2="366" y1="491.1563" y2="491.1563"/><text fill="#000000" font-family="sans-serif" font-size="13" lengthAdjust="spacing" textLength="143" x="46" y="486.0903">&#22793;&#26356;&#24046;&#20998;&#12398;&#12510;&#12540;&#12463;&#12480;&#12454;&#12531;</text><polygon fill="#181818" points="355,516.2891,365,520.2891,355,524.2891,359,520.2891" style="stroke:#181818;stroke-width:1.0;"/><line style="stroke:#181818;stroke-width:1.0;" x1="29" x2="361" y1="520.2891" y2="520.2891"/><text fill="#000000" font-family="sans-serif" font-size="13" lengthAdjust="spacing" textLength="236" x="36" y="515.2231">4. AI&#12395;&#12467;&#12511;&#12483;&#12488;&#12513;&#12483;&#12475;&#12540;&#12472;&#12434;&#29983;&#25104;&#12373;&#12379;&#12427;</text><polygon fill="#181818" points="40,545.4219,30,549.4219,40,553.4219,36,549.4219" style="stroke:#181818;stroke-width:1.0;"/><line style="stroke:#181818;stroke-width:1.0;stroke-dasharray:2.0,2.0;" x1="34" x2="366" y1="549.4219" y2="549.4219"/><text fill="#000000" font-family="sans-serif" font-size="13" lengthAdjust="spacing" textLength="117" x="46" y="544.356">&#12467;&#12511;&#12483;&#12488;&#12513;&#12483;&#12475;&#12540;&#12472;</text><polygon fill="#181818" points="461.5,574.5547,471.5,578.5547,461.5,582.5547,465.5,578.5547" style="stroke:#181818;stroke-width:1.0;"/><line style="stroke:#181818;stroke-width:1.0;" x1="29" x2="467.5" y1="578.5547" y2="578.5547"/><text fill="#000000" font-family="sans-serif" font-size="13" lengthAdjust="spacing" textLength="107" x="36" y="573.4888">5. &#12489;&#12461;&#12517;&#12513;&#12531;&#12488;&#21270;</text><polygon fill="#181818" points="576.5,603.6875,586.5,607.6875,576.5,611.6875,580.5,607.6875" style="stroke:#181818;stroke-width:1.0;"/><line style="stroke:#181818;stroke-width:1.0;" x1="473.5" x2="582.5" y1="607.6875" y2="607.6875"/><text fill="#000000" font-family="sans-serif" font-size="13" lengthAdjust="spacing" textLength="91" x="480.5" y="602.6216">&#22793;&#26356;&#23653;&#27508;&#12434;&#21462;&#24471;</text><polygon fill="#181818" points="484.5,632.8203,474.5,636.8203,484.5,640.8203,480.5,636.8203" style="stroke:#181818;stroke-width:1.0;"/><line style="stroke:#181818;stroke-width:1.0;stroke-dasharray:2.0,2.0;" x1="478.5" x2="587.5" y1="636.8203" y2="636.8203"/><text fill="#000000" font-family="sans-serif" font-size="13" lengthAdjust="spacing" textLength="78" x="490.5" y="631.7544">&#12467;&#12511;&#12483;&#12488;&#12525;&#12464;</text><polygon fill="#181818" points="680.5,661.9531,690.5,665.9531,680.5,669.9531,684.5,665.9531" style="stroke:#181818;stroke-width:1.0;"/><line style="stroke:#181818;stroke-width:1.0;" x1="473.5" x2="686.5" y1="665.9531" y2="665.9531"/><text fill="#000000" font-family="sans-serif" font-size="13" lengthAdjust="spacing" textLength="130" x="480.5" y="660.8872">&#12522;&#12509;&#12472;&#12488;&#12522;&#24773;&#22577;&#12434;&#32113;&#21512;</text><polygon fill="#181818" points="484.5,691.0859,474.5,695.0859,484.5,699.0859,480.5,695.0859" style="stroke:#181818;stroke-width:1.0;"/><line style="stroke:#181818;stroke-width:1.0;stroke-dasharray:2.0,2.0;" x1="478.5" x2="691.5" y1="695.0859" y2="695.0859"/><text fill="#000000" font-family="sans-serif" font-size="13" lengthAdjust="spacing" textLength="195" x="490.5" y="690.02">&#12501;&#12449;&#12452;&#12523;&#27083;&#36896;&#12392;&#12467;&#12540;&#12489;&#12473;&#12491;&#12506;&#12483;&#12488;</text><polygon fill="#181818" points="40,720.2188,30,724.2188,40,728.2188,36,724.2188" style="stroke:#181818;stroke-width:1.0;"/><line style="stroke:#181818;stroke-width:1.0;stroke-dasharray:2.0,2.0;" x1="34" x2="472.5" y1="724.2188" y2="724.2188"/><text fill="#000000" font-family="sans-serif" font-size="13" lengthAdjust="spacing" textLength="208" x="46" y="719.1528">&#12510;&#12540;&#12463;&#12480;&#12454;&#12531;&#21270;&#12373;&#12428;&#12383;&#12489;&#12461;&#12517;&#12513;&#12531;&#12488;</text><!--SRC=[hLFBJjjG4DtxA-uF18a-DYoGK2grBBhkseHKyY8FnSu-lgE0WoE140rgepQ9H021Gfk6ghGW-9ZHTSXVC7vW-rw2bKhTNSsTS-RCcHczO5LgRDPnfv__tZUQMbMlMKR1gEfbYwsRPhtumJ2BKZHVAPKCAr_JFrfI_4sbK7zlb3Ubu5l3UbVVq3PrIz_GpI93E4FuYlmAmQ6tfiMLMMurASXMsF8IGqx9DmY729FW2_c-sEs8sqCjoIHOM8GmuGDj5tbB0KGvEQLAc0NRVXr-bwQbn4IRcaYy2D-2ztU41l9ZaYZQdOn-NYonjNMqpqCY-nJv96YkvMji3iLELsxgqKw29gdsXNVYpXhzP-l7A69GlFQ9v8XF1qtH7oSsgPYSeWG-8HyWFq8uZvH8dVn1S16-803XKs8KB-PgHvkussZtOhwCSMGpt9_zd0tQQMdAO58xJ6Gl_LKZwLi19RK-GVx3ktBGlXD7BQzx6Vl3c9Q6pZTvCQgvLikwGeJuVI6SBRckuaOwaORwr9pCzbz5cncOrGjdXp3m7_mwweFlJmzwdhFdMsntaRkPUZAO52MftNfDK_1tQ8Gm3434uQWx7PzwrF9uw8qkvrwvUZ-nd15DvD_k93wIwQ-ns7F-wv4m-KeMt_6dNZq0]--></g></svg>