<?xml version="1.0" encoding="us-ascii" standalone="no"?><svg xmlns="http://www.w3.org/2000/svg" xmlns:xlink="http://www.w3.org/1999/xlink" contentStyleType="text/css" height="823px" preserveAspectRatio="none" style="width:805px;height:823px;background:#FFFFFF;" version="1.1" viewBox="0 0 805 823" width="805px" zoomAndPan="magnify"><defs><linearGradient id="ghv2ozkb7cxqs0" x1="0%" x2="100%" y1="0%" y2="100%"><stop offset="0%" stop-color="#5F9EA0"/><stop offset="100%" stop-color="#778899"/></linearGradient><linearGradient id="ghv2ozkb7cxqs1" x1="0%" x2="100%" y1="0%" y2="100%"><stop offset="0%" stop-color="#F0FFFF"/><stop offset="100%" stop-color="#B0C4DE"/></linearGradient><linearGradient id="ghv2ozkb7cxqs2" x1="0%" x2="100%" y1="0%" y2="100%"><stop offset="0%" stop-color="#B0E0E6"/><stop offset="100%" stop-color="#FFB6C1"/></linearGradient><linearGradient id="ghv2ozkb7cxqs3" x1="0%" x2="100%" y1="0%" y2="100%"><stop offset="0%" stop-color="#E0FFFF"/><stop offset="100%" stop-color="#5F9EA0"/></linearGradient><linearGradient id="ghv2ozkb7cxqs4" x1="0%" x2="100%" y1="0%" y2="100%"><stop offset="0%" stop-color="#FFE4E1"/><stop offset="100%" stop-color="#87CEFA"/></linearGradient><linearGradient id="ghv2ozkb7cxqs5" x1="0%" x2="100%" y1="0%" y2="100%"><stop offset="0%" stop-color="#FFDAB9"/><stop offset="100%" stop-color="#B0C4DE"/></linearGradient><linearGradient id="ghv2ozkb7cxqs6" x1="0%" x2="100%" y1="0%" y2="100%"><stop offset="0%" stop-color="#FFF5EE"/><stop offset="100%" stop-color="#F08080"/></linearGradient><linearGradient id="ghv2ozkb7cxqs7" x1="0%" x2="100%" y1="0%" y2="100%"><stop offset="0%" stop-color="#E6E6FA"/><stop offset="100%" stop-color="#FAFAD2"/></linearGradient><linearGradient id="ghv2ozkb7cxqs8" x1="0%" x2="100%" y1="0%" y2="100%"><stop offset="0%" stop-color="#FFF0F5"/><stop offset="100%" stop-color="#E0FFFF"/></linearGradient></defs><g><line style="stroke:#008B8B;stroke-width:0.5;stroke-dasharray:5.0,5.0;" x1="29" x2="29" y1="81.2969" y2="742.2188"/><line style="stroke:#008B8B;stroke-width:0.5;stroke-dasharray:5.0,5.0;" x1="173" x2="173" y1="81.2969" y2="742.2188"/><line style="stroke:#008B8B;stroke-width:0.5;stroke-dasharray:5.0,5.0;" x1="334" x2="334" y1="81.2969" y2="742.2188"/><line style="stroke:#008B8B;stroke-width:0.5;stroke-dasharray:5.0,5.0;" x1="440" x2="440" y1="81.2969" y2="742.2188"/><line style="stroke:#008B8B;stroke-width:0.5;stroke-dasharray:5.0,5.0;" x1="547" x2="547" y1="81.2969" y2="742.2188"/><line style="stroke:#008B8B;stroke-width:0.5;stroke-dasharray:5.0,5.0;" x1="662" x2="662" y1="81.2969" y2="742.2188"/><line style="stroke:#008B8B;stroke-width:0.5;stroke-dasharray:5.0,5.0;" x1="766" x2="766" y1="81.2969" y2="742.2188"/><text fill="#2F4F4F" font-family="sans-serif" font-size="14" lengthAdjust="spacing" textLength="42" x="5" y="77.9951">&#38283;&#30330;&#32773;</text><ellipse cx="29" cy="13.5" fill="url(#ghv2ozkb7cxqs1)" rx="8" ry="8" style="stroke:url(#ghv2ozkb7cxqs0);stroke-width:0.5;"/><path d="M29,21.5 L29,48.5 M16,29.5 L42,29.5 M29,48.5 L16,63.5 M29,48.5 L42,63.5 " fill="none" style="stroke:url(#ghv2ozkb7cxqs0);stroke-width:0.5;"/><text fill="#2F4F4F" font-family="sans-serif" font-size="14" lengthAdjust="spacing" textLength="42" x="5" y="754.2139">&#38283;&#30330;&#32773;</text><ellipse cx="29" cy="766.0156" fill="url(#ghv2ozkb7cxqs1)" rx="8" ry="8" style="stroke:url(#ghv2ozkb7cxqs0);stroke-width:0.5;"/><path d="M29,774.0156 L29,801.0156 M16,782.0156 L42,782.0156 M29,801.0156 L16,816.0156 M29,801.0156 L42,816.0156 " fill="none" style="stroke:url(#ghv2ozkb7cxqs0);stroke-width:0.5;"/><rect fill="url(#ghv2ozkb7cxqs2)" height="30.2969" rx="2.5" ry="2.5" style="stroke:url(#ghv2ozkb7cxqs3);stroke-width:0.5;" width="220" x="63" y="50"/><text fill="#000000" font-family="sans-serif" font-size="14" lengthAdjust="spacing" textLength="206" x="70" y="69.9951">SourceSage&lt;/&amp;SourceSage&gt;</text><rect fill="url(#ghv2ozkb7cxqs2)" height="30.2969" rx="2.5" ry="2.5" style="stroke:url(#ghv2ozkb7cxqs3);stroke-width:0.5;" width="220" x="63" y="741.2188"/><text fill="#000000" font-family="sans-serif" font-size="14" lengthAdjust="spacing" textLength="206" x="70" y="761.2139">SourceSage&lt;/&amp;SourceSage&gt;</text><rect fill="url(#ghv2ozkb7cxqs4)" height="30.2969" rx="2.5" ry="2.5" style="stroke:url(#ghv2ozkb7cxqs3);stroke-width:0.5;" width="83" x="293" y="50"/><text fill="#2F4F4F" font-family="sans-serif" font-size="14" lengthAdjust="spacing" textLength="69" x="300" y="69.9951">IssueWise</text><rect fill="url(#ghv2ozkb7cxqs4)" height="30.2969" rx="2.5" ry="2.5" style="stroke:url(#ghv2ozkb7cxqs3);stroke-width:0.5;" width="83" x="293" y="741.2188"/><text fill="#2F4F4F" font-family="sans-serif" font-size="14" lengthAdjust="spacing" textLength="69" x="300" y="761.2139">IssueWise</text><rect fill="url(#ghv2ozkb7cxqs5)" height="30.2969" rx="2.5" ry="2.5" style="stroke:url(#ghv2ozkb7cxqs3);stroke-width:0.5;" width="109" x="386" y="50"/><text fill="#2F4F4F" font-family="sans-serif" font-size="14" lengthAdjust="spacing" textLength="95" x="393" y="69.9951">CommitCraft</text><rect fill="url(#ghv2ozkb7cxqs5)" height="30.2969" rx="2.5" ry="2.5" style="stroke:url(#ghv2ozkb7cxqs3);stroke-width:0.5;" width="109" x="386" y="741.2188"/><text fill="#2F4F4F" font-family="sans-serif" font-size="14" lengthAdjust="spacing" textLength="95" x="393" y="761.2139">CommitCraft</text><rect fill="url(#ghv2ozkb7cxqs6)" height="30.2969" rx="2.5" ry="2.5" style="stroke:url(#ghv2ozkb7cxqs3);stroke-width:0.5;" width="84" x="505" y="50"/><text fill="#2F4F4F" font-family="sans-serif" font-size="14" lengthAdjust="spacing" textLength="70" x="512" y="69.9951">DocuMind</text><rect fill="url(#ghv2ozkb7cxqs6)" height="30.2969" rx="2.5" ry="2.5" style="stroke:url(#ghv2ozkb7cxqs3);stroke-width:0.5;" width="84" x="505" y="741.2188"/><text fill="#2F4F4F" font-family="sans-serif" font-size="14" lengthAdjust="spacing" textLength="70" x="512" y="761.2139">DocuMind</text><rect fill="url(#ghv2ozkb7cxqs7)" height="30.2969" rx="2.5" ry="2.5" style="stroke:url(#ghv2ozkb7cxqs3);stroke-width:0.5;" width="64" x="630" y="50"/><text fill="#2F4F4F" font-family="sans-serif" font-size="14" lengthAdjust="spacing" textLength="50" x="637" y="69.9951">GitHub</text><rect fill="url(#ghv2ozkb7cxqs7)" height="30.2969" rx="2.5" ry="2.5" style="stroke:url(#ghv2ozkb7cxqs3);stroke-width:0.5;" width="64" x="630" y="741.2188"/><text fill="#2F4F4F" font-family="sans-serif" font-size="14" lengthAdjust="spacing" textLength="50" x="637" y="761.2139">GitHub</text><text fill="#2F4F4F" font-family="sans-serif" font-size="14" lengthAdjust="spacing" textLength="70" x="728" y="77.9951">&#12522;&#12509;&#12472;&#12488;&#12522;</text><path d="M748,29 C748,19 766,19 766,19 C766,19 784,19 784,29 L784,55 C784,65 766,65 766,65 C766,65 748,65 748,55 L748,29 " fill="url(#ghv2ozkb7cxqs8)" style="stroke:#181818;stroke-width:1.5;"/><path d="M748,29 C748,39 766,39 766,39 C766,39 784,39 784,29 " fill="none" style="stroke:#181818;stroke-width:1.5;"/><text fill="#2F4F4F" font-family="sans-serif" font-size="14" lengthAdjust="spacing" textLength="70" x="728" y="754.2139">&#12522;&#12509;&#12472;&#12488;&#12522;</text><path d="M748,767.5156 C748,757.5156 766,757.5156 766,757.5156 C766,757.5156 784,757.5156 784,767.5156 L784,793.5156 C784,803.5156 766,803.5156 766,803.5156 C766,803.5156 748,803.5156 748,793.5156 L748,767.5156 " fill="url(#ghv2ozkb7cxqs8)" style="stroke:#181818;stroke-width:1.5;"/><path d="M748,767.5156 C748,777.5156 766,777.5156 766,777.5156 C766,777.5156 784,777.5156 784,767.5156 " fill="none" style="stroke:#181818;stroke-width:1.5;"/><polygon fill="#181818" points="322.5,108.4297,332.5,112.4297,322.5,116.4297,326.5,112.4297" style="stroke:#181818;stroke-width:1.0;"/><line style="stroke:#181818;stroke-width:3.0;" x1="29" x2="328.5" y1="112.4297" y2="112.4297"/><text fill="#000000" font-family="sans-serif" font-size="13" lengthAdjust="spacing" textLength="140" x="36" y="107.3638">1. &#12458;&#12540;&#12503;&#12531;Issue&#12434;&#21462;&#24471;</text><polygon fill="#181818" points="650,137.5625,660,141.5625,650,145.5625,654,141.5625" style="stroke:#181818;stroke-width:1.0;"/><line style="stroke:#181818;stroke-width:3.0;" x1="334.5" x2="656" y1="141.5625" y2="141.5625"/><text fill="#000000" font-family="sans-serif" font-size="13" lengthAdjust="spacing" textLength="141" x="341.5" y="136.4966">GitHub&#12363;&#12425;Issue&#12434;&#21462;&#24471;</text><polygon fill="#181818" points="345.5,166.6953,335.5,170.6953,345.5,174.6953,341.5,170.6953" style="stroke:#181818;stroke-width:1.0;"/><line style="stroke:#181818;stroke-width:3.0;stroke-dasharray:2.0,2.0;" x1="339.5" x2="661" y1="170.6953" y2="170.6953"/><text fill="#000000" font-family="sans-serif" font-size="13" lengthAdjust="spacing" textLength="72" x="351.5" y="165.6294">Issue&#12487;&#12540;&#12479;</text><polygon fill="#181818" points="40,195.8281,30,199.8281,40,203.8281,36,199.8281" style="stroke:#181818;stroke-width:1.0;"/><line style="stroke:#181818;stroke-width:3.0;stroke-dasharray:2.0,2.0;" x1="34" x2="333.5" y1="199.8281" y2="199.8281"/><text fill="#000000" font-family="sans-serif" font-size="13" lengthAdjust="spacing" textLength="176" x="46" y="194.7622">Issue&#12487;&#12540;&#12479;&#12434;&#12510;&#12540;&#12463;&#12480;&#12454;&#12531;&#21270;</text><polygon fill="#181818" points="322.5,224.9609,332.5,228.9609,322.5,232.9609,326.5,228.9609" style="stroke:#181818;stroke-width:1.0;"/><line style="stroke:#181818;stroke-width:3.0;" x1="29" x2="328.5" y1="228.9609" y2="228.9609"/><text fill="#000000" font-family="sans-serif" font-size="13" lengthAdjust="spacing" textLength="165" x="36" y="223.895">2. AI&#12395;Issue&#12392;&#12467;&#12540;&#12489;&#12434;&#20837;&#21147;</text><polygon fill="#181818" points="535,254.0938,545,258.0938,535,262.0938,539,258.0938" style="stroke:#181818;stroke-width:1.0;"/><line style="stroke:#181818;stroke-width:3.0;" x1="334.5" x2="541" y1="258.0938" y2="258.0938"/><text fill="#000000" font-family="sans-serif" font-size="13" lengthAdjust="spacing" textLength="182" x="341.5" y="253.0278">&#12467;&#12540;&#12489;&#12398;&#27083;&#36896;&#12434;&#12510;&#12540;&#12463;&#12480;&#12454;&#12531;&#21270;</text><polygon fill="#181818" points="754,283.2266,764,287.2266,754,291.2266,758,287.2266" style="stroke:#181818;stroke-width:1.0;"/><line style="stroke:#181818;stroke-width:3.0;" x1="547" x2="760" y1="287.2266" y2="287.2266"/><text fill="#000000" font-family="sans-serif" font-size="13" lengthAdjust="spacing" textLength="143" x="554" y="282.1606">&#12522;&#12509;&#12472;&#12488;&#12522;&#12398;&#24773;&#22577;&#12434;&#21462;&#24471;</text><polygon fill="#181818" points="558,312.3594,548,316.3594,558,320.3594,554,316.3594" style="stroke:#181818;stroke-width:1.0;"/><line style="stroke:#181818;stroke-width:3.0;stroke-dasharray:2.0,2.0;" x1="552" x2="765" y1="316.3594" y2="316.3594"/><text fill="#000000" font-family="sans-serif" font-size="13" lengthAdjust="spacing" textLength="195" x="564" y="311.2935">&#12501;&#12449;&#12452;&#12523;&#27083;&#36896;&#12392;&#12467;&#12540;&#12489;&#12473;&#12491;&#12506;&#12483;&#12488;</text><polygon fill="#181818" points="345.5,341.4922,335.5,345.4922,345.5,349.4922,341.5,345.4922" style="stroke:#181818;stroke-width:1.0;"/><line style="stroke:#181818;stroke-width:3.0;stroke-dasharray:2.0,2.0;" x1="339.5" x2="546" y1="345.4922" y2="345.4922"/><text fill="#000000" font-family="sans-serif" font-size="13" lengthAdjust="spacing" textLength="169" x="351.5" y="340.4263">&#12510;&#12540;&#12463;&#12480;&#12454;&#12531;&#21270;&#12373;&#12428;&#12383;&#12467;&#12540;&#12489;</text><polygon fill="#181818" points="40,370.625,30,374.625,40,378.625,36,374.625" style="stroke:#181818;stroke-width:1.0;"/><line style="stroke:#181818;stroke-width:3.0;stroke-dasharray:2.0,2.0;" x1="34" x2="333.5" y1="374.625" y2="374.625"/><text fill="#000000" font-family="sans-serif" font-size="13" lengthAdjust="spacing" textLength="208" x="46" y="369.5591">&#12510;&#12540;&#12463;&#12480;&#12454;&#12531;&#21270;&#12373;&#12428;&#12383;&#35506;&#38988;&#12392;&#12467;&#12540;&#12489;</text><polygon fill="#181818" points="428.5,399.7578,438.5,403.7578,428.5,407.7578,432.5,403.7578" style="stroke:#181818;stroke-width:1.0;"/><line style="stroke:#181818;stroke-width:3.0;" x1="29" x2="434.5" y1="403.7578" y2="403.7578"/><text fill="#000000" font-family="sans-serif" font-size="13" lengthAdjust="spacing" textLength="185" x="36" y="398.6919">3. &#12473;&#12486;&#12540;&#12472;&#12531;&#12464;&#28168;&#12415;&#22793;&#26356;&#12434;&#21462;&#24471;</text><polygon fill="#181818" points="754,428.8906,764,432.8906,754,436.8906,758,432.8906" style="stroke:#181818;stroke-width:1.0;"/><line style="stroke:#181818;stroke-width:3.0;" x1="440.5" x2="760" y1="432.8906" y2="432.8906"/><text fill="#000000" font-family="sans-serif" font-size="13" lengthAdjust="spacing" textLength="169" x="447.5" y="427.8247">&#12473;&#12486;&#12540;&#12472;&#12531;&#12464;&#28168;&#12415;&#22793;&#26356;&#12434;&#21462;&#24471;</text><polygon fill="#181818" points="451.5,458.0234,441.5,462.0234,451.5,466.0234,447.5,462.0234" style="stroke:#181818;stroke-width:1.0;"/><line style="stroke:#181818;stroke-width:3.0;stroke-dasharray:2.0,2.0;" x1="445.5" x2="765" y1="462.0234" y2="462.0234"/><text fill="#000000" font-family="sans-serif" font-size="13" lengthAdjust="spacing" textLength="52" x="457.5" y="456.9575">&#22793;&#26356;&#24046;&#20998;</text><polygon fill="#181818" points="40,487.1563,30,491.1563,40,495.1563,36,491.1563" style="stroke:#181818;stroke-width:1.0;"/><line style="stroke:#181818;stroke-width:3.0;stroke-dasharray:2.0,2.0;" x1="34" x2="439.5" y1="491.1563" y2="491.1563"/><text fill="#000000" font-family="sans-serif" font-size="13" lengthAdjust="spacing" textLength="143" x="46" y="486.0903">&#22793;&#26356;&#24046;&#20998;&#12398;&#12510;&#12540;&#12463;&#12480;&#12454;&#12531;</text><polygon fill="#181818" points="428.5,516.2891,438.5,520.2891,428.5,524.2891,432.5,520.2891" style="stroke:#181818;stroke-width:1.0;"/><line style="stroke:#181818;stroke-width:3.0;" x1="29" x2="434.5" y1="520.2891" y2="520.2891"/><text fill="#000000" font-family="sans-serif" font-size="13" lengthAdjust="spacing" textLength="236" x="36" y="515.2231">4. AI&#12395;&#12467;&#12511;&#12483;&#12488;&#12513;&#12483;&#12475;&#12540;&#12472;&#12434;&#29983;&#25104;&#12373;&#12379;&#12427;</text><polygon fill="#181818" points="40,545.4219,30,549.4219,40,553.4219,36,549.4219" style="stroke:#181818;stroke-width:1.0;"/><line style="stroke:#181818;stroke-width:3.0;stroke-dasharray:2.0,2.0;" x1="34" x2="439.5" y1="549.4219" y2="549.4219"/><text fill="#000000" font-family="sans-serif" font-size="13" lengthAdjust="spacing" textLength="117" x="46" y="544.356">&#12467;&#12511;&#12483;&#12488;&#12513;&#12483;&#12475;&#12540;&#12472;</text><polygon fill="#181818" points="535,574.5547,545,578.5547,535,582.5547,539,578.5547" style="stroke:#181818;stroke-width:1.0;"/><line style="stroke:#181818;stroke-width:3.0;" x1="29" x2="541" y1="578.5547" y2="578.5547"/><text fill="#000000" font-family="sans-serif" font-size="13" lengthAdjust="spacing" textLength="107" x="36" y="573.4888">5. &#12489;&#12461;&#12517;&#12513;&#12531;&#12488;&#21270;</text><polygon fill="#181818" points="650,603.6875,660,607.6875,650,611.6875,654,607.6875" style="stroke:#181818;stroke-width:1.0;"/><line style="stroke:#181818;stroke-width:3.0;" x1="547" x2="656" y1="607.6875" y2="607.6875"/><text fill="#000000" font-family="sans-serif" font-size="13" lengthAdjust="spacing" textLength="91" x="554" y="602.6216">&#22793;&#26356;&#23653;&#27508;&#12434;&#21462;&#24471;</text><polygon fill="#181818" points="558,632.8203,548,636.8203,558,640.8203,554,636.8203" style="stroke:#181818;stroke-width:1.0;"/><line style="stroke:#181818;stroke-width:3.0;stroke-dasharray:2.0,2.0;" x1="552" x2="661" y1="636.8203" y2="636.8203"/><text fill="#000000" font-family="sans-serif" font-size="13" lengthAdjust="spacing" textLength="78" x="564" y="631.7544">&#12467;&#12511;&#12483;&#12488;&#12525;&#12464;</text><polygon fill="#181818" points="754,661.9531,764,665.9531,754,669.9531,758,665.9531" style="stroke:#181818;stroke-width:1.0;"/><line style="stroke:#181818;stroke-width:3.0;" x1="547" x2="760" y1="665.9531" y2="665.9531"/><text fill="#000000" font-family="sans-serif" font-size="13" lengthAdjust="spacing" textLength="130" x="554" y="660.8872">&#12522;&#12509;&#12472;&#12488;&#12522;&#24773;&#22577;&#12434;&#32113;&#21512;</text><polygon fill="#181818" points="558,691.0859,548,695.0859,558,699.0859,554,695.0859" style="stroke:#181818;stroke-width:1.0;"/><line style="stroke:#181818;stroke-width:3.0;stroke-dasharray:2.0,2.0;" x1="552" x2="765" y1="695.0859" y2="695.0859"/><text fill="#000000" font-family="sans-serif" font-size="13" lengthAdjust="spacing" textLength="195" x="564" y="690.02">&#12501;&#12449;&#12452;&#12523;&#27083;&#36896;&#12392;&#12467;&#12540;&#12489;&#12473;&#12491;&#12506;&#12483;&#12488;</text><polygon fill="#181818" points="40,720.2188,30,724.2188,40,728.2188,36,724.2188" style="stroke:#181818;stroke-width:1.0;"/><line style="stroke:#181818;stroke-width:3.0;stroke-dasharray:2.0,2.0;" x1="34" x2="546" y1="724.2188" y2="724.2188"/><text fill="#000000" font-family="sans-serif" font-size="13" lengthAdjust="spacing" textLength="208" x="46" y="719.1528">&#12510;&#12540;&#12463;&#12480;&#12454;&#12531;&#21270;&#12373;&#12428;&#12383;&#12489;&#12461;&#12517;&#12513;&#12531;&#12488;</text><!--SRC=[hLDTInj157tFhnWCz4r3Q_lG408nWXKKWYcKFewRYLcoxjZPtKhwvEwWZOrGaLPffLL1sw9eQxNKVb1_pB1H_qLdFzoT7RT1eG-1oTrxpZttt7kDfghFG0AdWO6UM4XNK8aGFFkmeIfD7Ha66CmOKKe54bDLr1cecqEOr10fOmqJCAPEDSno2-gvCgmXSqYpa02gXhnZQft_T2GYXo5ftX0OAxilvEhOJ10FgGO7vtnbZv6cuLaXkQIOc8ZPKVK0KDMWYKO8R5t1GAKvHR2brm9SwPb5BZ4cGfhVG0PwgQ2le7WvUQ_5YB1uiTevU_FpV6w-aFC_5_i0D40K1TbKofdOTyvxguejeg0gd4B5-5d8YN6VDluFiXKyozkDUwoeUbFYJTCxQXWMUgGQAA4tYeBik6gOhGbiN6fkjb8Kfp6NyVIqQfO9h9i9RY7ELIEeD2fMlTxRaJJ-OQnOuwfUIv1V1a6sYc2rmHSZ82vZ0hLha8wevWDhCa4PX41s33v5EhSu81p1MWtf4xWMBbyDcd0ISiFIUHdTPVGTSquORVDtee3qBQx4ZJ0QkUZuCfbuZVgBmepouFO0O0vd-Ste6gD7_YVchBWlLzq_QvauayF2TlBXWzaTvYnAW32dNweIPD7dNXtdLAJbYR4sEP7pClhUVtzcT8uv7xX4TscrHpzt1a1fbDbx0P7zYJb7VdEBdiRv7VV5UhAfQEnv4AVQ1zsFdOkvpN_MZr2SGHv2NevuT7JUtJoCRP8n_P8I-fevMypPPdGlL9Bev0UZ7KRVCaevNX0ZUP6gdTcSUudP6n5VZt7qPZZV_NgnjIHAamOZ7cmU37ghngKl-9IyzIFcVEcUj9bzwculTjUF8ty0o8ZGT9ElHvLgTL9NW72_7xZjXMHToGqnaG_rgZazsxyRRgPlraOmEqQtl8VpA-p3MJbxjT5jBtiMs-lCwVJKquD9KYBirZq-1M-7zXdTyK6SeotlT7JgOSk7EztzuzGhb-ydahFF9tApEucEvEpReRlS_gz70f9NSlqTl-hLNm00]--></g></svg>